<?xml version="1.0" encoding="utf-8"?>
<!-- Generator: Adobe Illustrator 19.2.1, SVG Export Plug-In . SVG Version: 6.00 Build 0)  -->
<svg version="1.1" id="Capa_1" xmlns="http://www.w3.org/2000/svg" xmlns:xlink="http://www.w3.org/1999/xlink" x="0px" y="0px"
	 viewBox="0 0 481.2 481.2" style="enable-background:new 0 0 481.2 481.2;" xml:space="preserve">
<style type="text/css">
	.st0{fill:#FFFFFF;}
</style>
<g>
	<g>
		<path class="st0" d="M300.2,308.3l-78.3,23.8c0.1,0.5,0.3,1.1,0.5,1.6c2.1,5.7,6.4,8.9,13.4,10c25.7,4.1,68.4,1.5,68.8,1.5
			c6.6-0.4,12.3,4.6,12.7,11.2s-4.6,12.3-11.2,12.7c-1.9,0.1-45.7,2.8-74.1-1.8c-28.2-4.5-36.3-29.4-34.8-45.1
			c0.5-4.9,3.8-9,8.5-10.4l87.6-26.6c43.3-13.1,90.7,11.1,92.7,12.1c0.2,0.1,0.5,0.2,0.7,0.4l87.2,52.9c5.7,3.4,7.5,10.8,4.1,16.5
			c-2.3,3.7-6.2,5.8-10.3,5.8c-2.1,0-4.2-0.6-6.2-1.7l-86.8-52.5C371,316.7,332.8,298.4,300.2,308.3z"/>
		<path class="st0" d="M1.5,288.2c6.9-12.6,28.3-32.7,60.8-18.3c30.7,13.7,95.6,45,96.3,45.3c6,2.9,8.5,10,5.6,16s-10.1,8.5-16,5.6
			c-0.7-0.3-65.2-31.5-95.6-45c-8.7-3.9-16-3.9-22.2,0c-0.2,0.1-0.3,0.2-0.5,0.3l162.6,119.5c11.6,8.5,26.2,12,40.3,9.8l145.1-23.2
			c3.4-0.5,6.9,0.4,9.6,2.6l36.7,30.7c5.1,4.2,5.8,11.8,1.5,16.9c-2.4,2.8-5.8,4.3-9.2,4.3c-2.7,0-5.4-0.9-7.7-2.8l-32.5-27.2
			l-139.8,22.4c-20.3,3.3-41.6-1.9-58.2-14.1L4.8,303.6C0.1,300-1.4,293.5,1.5,288.2z"/>
		<path class="st0" d="M223.1,274.4c-18.6,0-36.1-7.3-49.4-20.5c-27.2-27.3-27.2-71.6,0-98.9c13.2-13.2,30.7-20.5,49.4-20.5
			c18.6,0,36.1,7.3,49.4,20.5c27.2,27.3,27.2,71.6,0,98.9C259.2,267.1,241.8,274.4,223.1,274.4z M255.5,172
			c-8.7-8.7-20.1-13.5-32.4-13.5c-12.3,0-23.7,4.8-32.4,13.5c-17.8,17.9-17.8,47.1,0,65c8.7,8.7,20.1,13.5,32.4,13.5
			s23.7-4.8,32.4-13.5C273.4,219.1,273.4,189.9,255.5,172z"/>
		<path class="st0" d="M141.3,137.7c-14.6,0-28.2-5.7-38.5-16c-21.2-21.3-21.2-55.9,0-77.2c10.3-10.3,23.9-16,38.5-16
			c14.6,0,28.2,5.7,38.5,16c21.2,21.3,21.2,55.9,0,77.2C169.5,132.1,155.7,137.7,141.3,137.7z M162.8,61.5c-5.8-5.8-13.5-9-21.6-9
			c-8.2,0-15.9,3.2-21.6,9c-11.9,11.9-11.9,31.4,0,43.3c5.8,5.8,13.5,9,21.6,9c8.2,0,15.9-3.2,21.6-9
			C174.7,92.8,174.7,73.4,162.8,61.5z"/>
	</g>
</g>
</svg>
