<?xml version="1.0" encoding="utf-8"?>
<!-- Generator: Adobe Illustrator 19.2.1, SVG Export Plug-In . SVG Version: 6.00 Build 0)  -->
<svg version="1.1" id="Capa_1" xmlns="http://www.w3.org/2000/svg" xmlns:xlink="http://www.w3.org/1999/xlink" x="0px" y="0px"
	 viewBox="0 0 595.3 841.9" style="enable-background:new 0 0 595.3 841.9;" xml:space="preserve">
<style type="text/css">
	.st0{fill:#FFFFFF;}
</style>
<g>
	<path class="st0" d="M543.8,328.1H411.3V220.7c0-27.9-23-50.9-50.9-50.9H50.9C23,169.8,0,192.8,0,220.7v186.3
		c0,27.9,23,50.9,50.9,50.9H81l37.9,50.9c2.1,3.6,6.4,5,10.7,5c4.3,0,7.9-2.1,10.7-5l37.9-50.9h5.7v107.5c0,27.9,23,50.9,50.9,50.9
		h182l37.9,50.9c2.1,3.6,6.4,5,10.7,5c4.3,0,7.9-2.1,10.7-5l37.9-50.9h30.1c27.9,0,50.9-23,50.9-50.9V379
		C595.3,351,572.5,328.1,543.8,328.1z M171.3,431.3c-4.3,0-7.9,2.1-10.7,5L129,477.9l-31.5-41.5c-2.1-3.6-6.4-5-10.7-5H49.5
		c-13.6,0-24.3-10.7-24.3-24.3V220.7c0-13.6,10.7-24.3,24.3-24.3H359c13.6,0,24.3,10.7,24.3,24.3v121.1v65.2
		c0,13.6-10.7,24.3-24.3,24.3H197L171.3,431.3L171.3,431.3z M568.9,565.3c0,13.6-10.7,24.3-24.3,24.3h-37.3c-4.3,0-7.9,2.1-10.7,5
		L465,636.2l-31.5-41.5c-2.1-3.6-6.4-5-10.7-5H235c-13.6,0-24.3-10.7-24.3-24.3V457.8h149.7c10,0,19.4-2.9,27.2-7.9h100.3
		c7.2,0,12.9-5.7,12.9-12.9c0-7.2-5.7-12.9-12.9-12.9h-78.8c2.1-5,2.9-10.7,2.9-17.2v-51.6h132.5c13.6,0,24.3,10.7,24.3,24.3
		L568.9,565.3L568.9,565.3z M500.1,510.8c0,7.2-5.7,12.9-12.9,12.9H292.3c-7.2,0-12.9-5.7-12.9-12.9c0-7.2,5.7-12.9,12.9-12.9h194.9
		C494.3,497.9,500.1,503.7,500.1,510.8z M301.6,365.4H107.5c-7.2,0-12.9-5.7-12.9-12.9s5.7-12.9,12.9-12.9h194.2
		c7.2,0,12.9,5.7,12.9,12.9C315.2,359.7,308.8,365.4,301.6,365.4z M94.6,278c0-7.2,5.7-12.9,12.9-12.9h116.7
		c7.2,0,12.9,5.7,12.9,12.9c0,7.2-5.7,12.9-12.9,12.9H107.5C100.3,290.9,94.6,285.2,94.6,278z"/>
</g>
</svg>
